<svg xmlns="http://www.w3.org/2000/svg" xmlns:xlink="http://www.w3.org/1999/xlink" xmlns:lucid="lucid" width="1080" height="720"><g transform="translate(-220.00000000000003 -140)" lucid:page-tab-id="0_0"><path d="M684.82 446a6 6 0 0 1 6-6h160.3a6 6 0 0 1 6 6v38a6 6 0 0 1-6 6H690.8a6 6 0 0 1-6-6z" stroke="#3a414a" fill="#cfe4ff"/><use xlink:href="#a" transform="matrix(1,0,0,1,696.8192771084338,452) translate(54.160493827160494 17.77777777777778)"/><path d="M246.27 796a6 6 0 0 1 6-6h97.63a6 6 0 0 1 6 6v38a6 6 0 0 1-6 6h-97.63a6 6 0 0 1-6-6z" stroke="#3a414a" fill="#ffd6f5"/><use xlink:href="#b" transform="matrix(1,0,0,1,258.26506024096386,802) translate(2.290123456790127 17.77777777777778)"/><path d="M240 616a6 6 0 0 1 6-6h113.3a6 6 0 0 1 6 6v38a6 6 0 0 1-6 6H246a6 6 0 0 1-6-6z" stroke="#3a414a" fill="#ffd6f5"/><use xlink:href="#c" transform="matrix(1,0,0,1,252.00000000000003,622) translate(35.598765432098766 17.77777777777778)"/><path d="M700.48 616a6 6 0 0 1 6-6h113.3a6 6 0 0 1 6 6v38a6 6 0 0 1-6 6h-113.3a6 6 0 0 1-6-6z" stroke="#3a414a" fill="#dfe3e8"/><use xlink:href="#d" transform="matrix(1,0,0,1,712.4819277108435,622) translate(29.48765432098765 17.77777777777778)"/><path d="M1170.36 616a6 6 0 0 1 6-6H1274a6 6 0 0 1 6 6v38a6 6 0 0 1-6 6h-97.64a6 6 0 0 1-6-6z" stroke="#3a414a" fill="#fff7a1"/><use xlink:href="#e" transform="matrix(1,0,0,1,1182.3614457831327,622) translate(10.345679012345684 17.77777777777778)"/><path d="M858.07 465h361.1a6 6 0 0 1 6 6v122.15" stroke="#3a414a" fill="none"/><path d="M858.1 465.5h-.53v-1h.52z" stroke="#3a414a" stroke-width=".05" fill="#3a414a"/><path d="M1225.18 607.92l-4.63-14.27h9.27z" stroke="#3a414a" fill="#3a414a"/><path d="M366.27 635h317.36" stroke="#3a414a" fill="none"/><path d="M366.28 635.5h-.5l-.02-1h.52z" stroke="#3a414a" stroke-width=".05" fill="#3a414a"/><path d="M698.4 635l-14.27 4.64v-9.28z" stroke="#3a414a" fill="#3a414a"/><path d="M683.86 465h-375.2a6 6 0 0 0-6 6v122.15" stroke="#3a414a" fill="none"/><path d="M684.36 465.5h-.52v-1h.5z" stroke="#3a414a" stroke-width=".05" fill="#3a414a"/><path d="M302.65 607.92l-4.63-14.27h9.27z" stroke="#3a414a" fill="#3a414a"/><path d="M356.87 815h400.26a6 6 0 0 0 6-6V676.85" stroke="#3a414a" fill="none"/><path d="M356.88 815.5h-.5v-1h.5z" stroke="#3a414a" stroke-width=".05" fill="#3a414a"/><path d="M763.13 662.08l4.64 14.27h-9.27z" stroke="#3a414a" fill="#3a414a"/><path d="M770.96 490.96V550h.02v43.15" stroke="#3a414a" fill="none"/><path d="M771.46 490.98h-1v-.52h1z" stroke="#3a414a" stroke-width=".05" fill="#3a414a"/><path d="M771 607.9l-4.65-14.25h9.27z" stroke="#3a414a" fill="#3a414a"/><path d="M1169.4 635H842.63" stroke="#3a414a" fill="none"/><path d="M1169.9 635.5h-.52v-1h.52z" stroke="#3a414a" stroke-width=".05" fill="#3a414a"/><path d="M827.87 635l14.26-4.64v9.28z" stroke="#3a414a" fill="#3a414a"/><path d="M302.65 660.96v112.19" stroke="#3a414a" fill="none"/><path d="M303.15 660.98h-1v-.52h1z" stroke="#3a414a" stroke-width=".05" fill="#3a414a"/><path d="M302.66 787.92l-4.64-14.27h9.27z" stroke="#3a414a" fill="#3a414a"/><path d="M545.33 166a6 6 0 0 1 6-6H994a6 6 0 0 1 6 6v148a6 6 0 0 1-6 6H551.33a6 6 0 0 1-6-6z" stroke="#3a414a" fill="#c3f7c8"/><use xlink:href="#f" transform="matrix(1,0,0,1,557.3333333333334,172) translate(195.7469135802469 73.02777777777777)"/><path d="M772.67 320.96v58.2a.85.85 0 0 1-.85.84.85.85 0 0 0-.86.85v42.3" stroke="#3a414a" fill="none"/><path d="M773.17 320.98h-1v-.52h1z" stroke="#3a414a" stroke-width=".05" fill="#3a414a"/><path d="M770.96 437.92l-4.63-14.27h9.27z" stroke="#3a414a" fill="#3a414a"/><path d="M560 266a6 6 0 0 1 6-6h128.48a6 6 0 0 1 6 6v28a6 6 0 0 1-6 6H566a6 6 0 0 1-6-6z" stroke="#3a414a" fill="#fff"/><use xlink:href="#g" transform="matrix(1,0,0,1,572,272) translate(4.950617283950606 17.77777777777778)"/><path d="M857.1 186a6 6 0 0 1 6-6h105.12a6 6 0 0 1 6 6v28a6 6 0 0 1-6 6h-105.1a6 6 0 0 1-6-6z" stroke="#3a414a" fill="#fff"/><use xlink:href="#h" transform="matrix(1,0,0,1,869.1084337349398,192) translate(11.25925925925926 17.77777777777778)"/><defs><path fill="#3a414a" d="M232-93c-1 65-40 97-104 97C67 4 28-28 28-90v-158h33c8 89-33 224 67 224 102 0 64-133 71-224h33v155" id="i"/><path fill="#3a414a" d="M117-194c89-4 53 116 60 194h-32v-121c0-31-8-49-39-48C34-167 62-67 57 0H25l-1-190h30c1 10-1 24 2 32 11-22 29-35 61-36" id="j"/><path fill="#3a414a" d="M100-194c62-1 85 37 85 99 1 63-27 99-86 99S16-35 15-95c0-66 28-99 85-99zM99-20c44 1 53-31 53-75 0-43-8-75-51-75s-53 32-53 75 10 74 51 75" id="k"/><g id="a"><use transform="matrix(0.06172839506172839,0,0,0.06172839506172839,0,0)" xlink:href="#i"/><use transform="matrix(0.06172839506172839,0,0,0.06172839506172839,15.987654320987653,0)" xlink:href="#j"/><use transform="matrix(0.06172839506172839,0,0,0.06172839506172839,28.333333333333332,0)" xlink:href="#k"/></g><path fill="#3a414a" d="M185-189c-5-48-123-54-124 2 14 75 158 14 163 119 3 78-121 87-175 55-17-10-28-26-33-46l33-7c5 56 141 63 141-1 0-78-155-14-162-118-5-82 145-84 179-34 5 7 8 16 11 25" id="l"/><path fill="#3a414a" d="M96-169c-40 0-48 33-48 73s9 75 48 75c24 0 41-14 43-38l32 2c-6 37-31 61-74 61-59 0-76-41-82-99-10-93 101-131 147-64 4 7 5 14 7 22l-32 3c-4-21-16-35-41-35" id="m"/><path fill="#3a414a" d="M106-169C34-169 62-67 57 0H25v-261h32l-1 103c12-21 28-36 61-36 89 0 53 116 60 194h-32v-121c2-32-8-49-39-48" id="n"/><path fill="#3a414a" d="M100-194c63 0 86 42 84 106H49c0 40 14 67 53 68 26 1 43-12 49-29l28 8c-11 28-37 45-77 45C44 4 14-33 15-96c1-61 26-98 85-98zm52 81c6-60-76-77-97-28-3 7-6 17-6 28h103" id="o"/><path fill="#3a414a" d="M210-169c-67 3-38 105-44 169h-31v-121c0-29-5-50-35-48C34-165 62-65 56 0H25l-1-190h30c1 10-1 24 2 32 10-44 99-50 107 0 11-21 27-35 58-36 85-2 47 119 55 194h-31v-121c0-29-5-49-35-48" id="p"/><path fill="#3a414a" d="M141-36C126-15 110 5 73 4 37 3 15-17 15-53c-1-64 63-63 125-63 3-35-9-54-41-54-24 1-41 7-42 31l-33-3c5-37 33-52 76-52 45 0 72 20 72 64v82c-1 20 7 32 28 27v20c-31 9-61-2-59-35zM48-53c0 20 12 33 32 33 41-3 63-29 60-74-43 2-92-5-92 41" id="q"/><g id="b"><use transform="matrix(0.06172839506172839,0,0,0.06172839506172839,0,0)" xlink:href="#l"/><use transform="matrix(0.06172839506172839,0,0,0.06172839506172839,14.814814814814813,0)" xlink:href="#m"/><use transform="matrix(0.06172839506172839,0,0,0.06172839506172839,25.925925925925924,0)" xlink:href="#n"/><use transform="matrix(0.06172839506172839,0,0,0.06172839506172839,38.2716049382716,0)" xlink:href="#o"/><use transform="matrix(0.06172839506172839,0,0,0.06172839506172839,50.61728395061728,0)" xlink:href="#p"/><use transform="matrix(0.06172839506172839,0,0,0.06172839506172839,69.07407407407406,0)" xlink:href="#q"/></g><path fill="#3a414a" d="M30-248c118-7 216 8 213 122C240-48 200 0 122 0H30v-248zM63-27c89 8 146-16 146-99s-60-101-146-95v194" id="r"/><path fill="#3a414a" d="M160-131c35 5 61 23 61 61C221 17 115-2 30 0v-248c76 3 177-17 177 60 0 33-19 50-47 57zm-97-11c50-1 110 9 110-42 0-47-63-36-110-37v79zm0 115c55-2 124 14 124-45 0-56-70-42-124-44v89" id="s"/><g id="c"><use transform="matrix(0.06172839506172839,0,0,0.06172839506172839,0,0)" xlink:href="#r"/><use transform="matrix(0.06172839506172839,0,0,0.06172839506172839,15.987654320987653,0)" xlink:href="#s"/></g><path fill="#3a414a" d="M59-47c-2 24 18 29 38 22v24C64 9 27 4 27-40v-127H5v-23h24l9-43h21v43h35v23H59v120" id="t"/><path fill="#3a414a" d="M24-231v-30h32v30H24zM24 0v-190h32V0H24" id="u"/><path fill="#3a414a" d="M24 0v-261h32V0H24" id="v"/><path fill="#3a414a" d="M135-143c-3-34-86-38-87 0 15 53 115 12 119 90S17 21 10-45l28-5c4 36 97 45 98 0-10-56-113-15-118-90-4-57 82-63 122-42 12 7 21 19 24 35" id="w"/><g id="d"><use transform="matrix(0.06172839506172839,0,0,0.06172839506172839,0,0)" xlink:href="#i"/><use transform="matrix(0.06172839506172839,0,0,0.06172839506172839,15.987654320987653,0)" xlink:href="#t"/><use transform="matrix(0.06172839506172839,0,0,0.06172839506172839,22.160493827160494,0)" xlink:href="#u"/><use transform="matrix(0.06172839506172839,0,0,0.06172839506172839,27.037037037037038,0)" xlink:href="#v"/><use transform="matrix(0.06172839506172839,0,0,0.06172839506172839,31.913580246913586,0)" xlink:href="#w"/></g><path fill="#3a414a" d="M114-163C36-179 61-72 57 0H25l-1-190h30c1 12-1 29 2 39 6-27 23-49 58-41v29" id="x"/><path fill="#3a414a" d="M108 0H70L1-190h34L89-25l56-165h34" id="y"/><g id="e"><use transform="matrix(0.06172839506172839,0,0,0.06172839506172839,0,0)" xlink:href="#l"/><use transform="matrix(0.06172839506172839,0,0,0.06172839506172839,14.814814814814813,0)" xlink:href="#o"/><use transform="matrix(0.06172839506172839,0,0,0.06172839506172839,27.160493827160494,0)" xlink:href="#x"/><use transform="matrix(0.06172839506172839,0,0,0.06172839506172839,34.50617283950617,0)" xlink:href="#y"/><use transform="matrix(0.06172839506172839,0,0,0.06172839506172839,45.61728395061728,0)" xlink:href="#o"/><use transform="matrix(0.06172839506172839,0,0,0.06172839506172839,57.962962962962955,0)" xlink:href="#x"/></g><path fill="#3a414a" d="M205 0l-28-72H64L36 0H1l101-248h38L239 0h-34zm-38-99l-47-123c-12 45-31 82-46 123h93" id="z"/><path fill="#3a414a" d="M115-194c55 1 70 41 70 98S169 2 115 4C84 4 66-9 55-30l1 105H24l-1-265h31l2 30c10-21 28-34 59-34zm-8 174c40 0 45-34 45-75s-6-73-45-74c-42 0-51 32-51 76 0 43 10 73 51 73" id="A"/><g id="f"><use transform="matrix(0.06172839506172839,0,0,0.06172839506172839,0,0)" xlink:href="#z"/><use transform="matrix(0.06172839506172839,0,0,0.06172839506172839,14.814814814814813,0)" xlink:href="#A"/><use transform="matrix(0.06172839506172839,0,0,0.06172839506172839,27.160493827160494,0)" xlink:href="#A"/></g><path fill="#3a414a" d="M212-179c-10-28-35-45-73-45-59 0-87 40-87 99 0 60 29 101 89 101 43 0 62-24 78-52l27 14C228-24 195 4 139 4 59 4 22-46 18-125c-6-104 99-153 187-111 19 9 31 26 39 46" id="B"/><g id="g"><use transform="matrix(0.06172839506172839,0,0,0.06172839506172839,0,0)" xlink:href="#B"/><use transform="matrix(0.06172839506172839,0,0,0.06172839506172839,15.987654320987653,0)" xlink:href="#k"/><use transform="matrix(0.06172839506172839,0,0,0.06172839506172839,28.333333333333332,0)" xlink:href="#j"/><use transform="matrix(0.06172839506172839,0,0,0.06172839506172839,40.67901234567901,0)" xlink:href="#t"/><use transform="matrix(0.06172839506172839,0,0,0.06172839506172839,46.851851851851855,0)" xlink:href="#x"/><use transform="matrix(0.06172839506172839,0,0,0.06172839506172839,54.19753086419753,0)" xlink:href="#k"/><use transform="matrix(0.06172839506172839,0,0,0.06172839506172839,66.54320987654322,0)" xlink:href="#v"/><use transform="matrix(0.06172839506172839,0,0,0.06172839506172839,71.41975308641976,0)" xlink:href="#v"/><use transform="matrix(0.06172839506172839,0,0,0.06172839506172839,76.2962962962963,0)" xlink:href="#o"/><use transform="matrix(0.06172839506172839,0,0,0.06172839506172839,88.64197530864199,0)" xlink:href="#x"/><use transform="matrix(0.06172839506172839,0,0,0.06172839506172839,95.98765432098767,0)" xlink:href="#w"/></g><path fill="#3a414a" d="M240 0l2-218c-23 76-54 145-80 218h-23L58-218 59 0H30v-248h44l77 211c21-75 51-140 76-211h43V0h-30" id="C"/><path fill="#3a414a" d="M85-194c31 0 48 13 60 33l-1-100h32l1 261h-30c-2-10 0-23-3-31C134-8 116 4 85 4 32 4 16-35 15-94c0-66 23-100 70-100zm9 24c-40 0-46 34-46 75 0 40 6 74 45 74 42 0 51-32 51-76 0-42-9-74-50-73" id="D"/><g id="h"><use transform="matrix(0.06172839506172839,0,0,0.06172839506172839,0,0)" xlink:href="#C"/><use transform="matrix(0.06172839506172839,0,0,0.06172839506172839,18.456790123456788,0)" xlink:href="#k"/><use transform="matrix(0.06172839506172839,0,0,0.06172839506172839,30.80246913580247,0)" xlink:href="#D"/><use transform="matrix(0.06172839506172839,0,0,0.06172839506172839,43.148148148148145,0)" xlink:href="#o"/><use transform="matrix(0.06172839506172839,0,0,0.06172839506172839,55.49382716049382,0)" xlink:href="#v"/><use transform="matrix(0.06172839506172839,0,0,0.06172839506172839,60.37037037037037,0)" xlink:href="#w"/></g></defs></g></svg>